<svg id="Logo" xmlns="http://www.w3.org/2000/svg" width="204.732" height="34.02" viewBox="0 0 204.732 34.02">
  <g id="Moglix">
    <path id="Path_1" data-name="Path 1" d="M74.391,39.213H69.752c.206-2.887.309-5.773.309-8.556,0-2.062-.309-3.4-.825-4.02a3.136,3.136,0,0,0-2.577-.928,5.231,5.231,0,0,0-2.99,1.031c0,1.443-.1,2.783-.1,3.917,0,1.959,0,4.845.1,8.66H59.031c.206-3.2.412-6.288.412-9.278a6.4,6.4,0,0,0-.619-3.3,3.114,3.114,0,0,0-2.68-1.031,4.2,4.2,0,0,0-3.093,1.237c.1,4.536.1,8.66.1,12.268H48.515c.206-3.608.309-6.495.309-8.556A38.819,38.819,0,0,0,48,22.822l4.433-.515.309,1.856h.206A7.557,7.557,0,0,1,58,22.1c2.371,0,4.02.722,4.948,2.062h.309A8.428,8.428,0,0,1,68.309,22.1a6.692,6.692,0,0,1,4.433,1.237q1.546,1.237,1.546,4.639V30.45C74.288,32.512,74.288,35.4,74.391,39.213Z" transform="translate(-48 -14.742)" fill="#d9232d"/>
    <path id="Path_2" data-name="Path 2" d="M92.125,30.663a8.923,8.923,0,0,1-2.68,6.8,9.042,9.042,0,0,1-6.392,2.474,8.328,8.328,0,0,1-5.979-2.268A8.234,8.234,0,0,1,74.6,31.281a9.159,9.159,0,0,1,2.68-6.907A9.042,9.042,0,0,1,83.672,21.9a8.085,8.085,0,0,1,5.876,2.268A8.528,8.528,0,0,1,92.125,30.663Zm-4.536.515a7.821,7.821,0,0,0-1.134-4.227A3.757,3.757,0,0,0,83.363,25.2a3.493,3.493,0,0,0-2.99,1.546,6.2,6.2,0,0,0-1.134,4.02,7.821,7.821,0,0,0,1.134,4.227,3.757,3.757,0,0,0,3.093,1.753,3.493,3.493,0,0,0,2.99-1.546A7.108,7.108,0,0,0,87.589,31.178Z" transform="translate(-47.382 -14.754)" fill="#d9232d"/>
    <path id="Path_3" data-name="Path 3" d="M111.059,20.415l-.412,3.2c-1.753,0-2.886.206-3.4.825v.206a4.513,4.513,0,0,1,1.031,2.887,5.552,5.552,0,0,1-1.856,4.227,7.72,7.72,0,0,1-5.464,1.753A11.219,11.219,0,0,1,98.07,33.2c-.619.309-.928.619-.928,1.134a1.433,1.433,0,0,0,1.134,1.443,17.79,17.79,0,0,0,5.154.412c4.639,0,7.01,1.546,7.01,4.742a5.833,5.833,0,0,1-2.887,5.258,12.157,12.157,0,0,1-7.01,1.959c-5.464,0-8.144-1.649-8.144-5.154a4.038,4.038,0,0,1,.928-2.68,3.519,3.519,0,0,1,2.165-1.34v-.206a3.162,3.162,0,0,1-1.443-2.783,3.688,3.688,0,0,1,1.959-3.2V32.58a4.607,4.607,0,0,1-2.783-4.433,5.317,5.317,0,0,1,1.959-4.227,8.995,8.995,0,0,1,5.979-1.753A8.072,8.072,0,0,1,105.6,23.2h.206c.309-2.165,1.443-3.3,3.4-3.3A6.258,6.258,0,0,1,111.059,20.415ZM106.111,42.27a1.963,1.963,0,0,0-1.031-1.856,6.829,6.829,0,0,0-3.4-.515c-1.34,0-2.577-.1-3.917-.206a2.989,2.989,0,0,0-1.546,2.68c0,2.268,1.443,3.3,4.433,3.3a7.1,7.1,0,0,0,3.917-.928A2.875,2.875,0,0,0,106.111,42.27Zm-2.062-14.226a2.725,2.725,0,0,0-1.031-2.371,3.531,3.531,0,0,0-4.536,0,3.017,3.017,0,0,0-1.031,2.371,2.725,2.725,0,0,0,1.031,2.371,3.892,3.892,0,0,0,2.371.825,3.261,3.261,0,0,0,2.268-.825A3.106,3.106,0,0,0,104.049,28.044Z" transform="translate(-46.974 -15.158)" fill="#d9232d"/>
    <path id="Path_4" data-name="Path 4" d="M117.751,39.441h-4.742c.206-4.02.206-8.247.206-12.886,0-4.536-.206-8.35-.515-11.546l5.051-.309c-.206,3.3-.206,7.216-.206,11.855S117.648,35.524,117.751,39.441Z" transform="translate(-46.433 -14.7)" fill="#d9232d"/>
    <path id="Path_5" data-name="Path 5" d="M125.551,39.432h-4.639c.206-2.371.206-5.154.206-8.247a47.633,47.633,0,0,0-.619-8.144l5.051-.515c-.1,2.268-.206,5.154-.206,8.556C125.345,34.175,125.448,36.958,125.551,39.432Zm.825-21.752a3.065,3.065,0,0,1-.825,2.062,2.879,2.879,0,0,1-2.268.928,2.01,2.01,0,0,1-1.856-.825,2.964,2.964,0,0,1-.722-1.856,3.065,3.065,0,0,1,.825-2.062A2.879,2.879,0,0,1,123.8,15a2.206,2.206,0,0,1,1.856.722A3.3,3.3,0,0,1,126.376,17.68Z" transform="translate(-46.248 -14.691)" fill="#d9232d"/>
    <path id="Path_6" data-name="Path 6" d="M140.252,22.9h4.639a31.9,31.9,0,0,1-2.268,3.505,30.883,30.883,0,0,1-3.093,3.814v.206a50.949,50.949,0,0,1,3.505,4.742,40.6,40.6,0,0,1,2.577,4.124l-5.361.1a16.539,16.539,0,0,0-1.443-3.093,31.636,31.636,0,0,0-2.062-3.505h-.206a18.668,18.668,0,0,0-1.856,3.505,17.305,17.305,0,0,0-1.34,3.2H128.5q0-.464,2.474-4.02a27.8,27.8,0,0,1,3.505-4.639v-.206c-.515-.619-1.546-1.856-2.99-3.917-1.546-2.165-2.371-3.3-2.371-3.608h5.464a11.249,11.249,0,0,0,1.134,2.68,18.972,18.972,0,0,0,1.753,2.99h.206a22.567,22.567,0,0,0,1.649-2.887C139.84,24.137,140.252,23.209,140.252,22.9Z" transform="translate(-46.132 -14.736)" fill="#d9232d"/>
    <path id="Path_7" data-name="Path 7" d="M144.7,41.834a3.733,3.733,0,0,1,1.134,2.783A3.807,3.807,0,0,1,144.7,47.4a3.585,3.585,0,0,1-2.783,1.134,3.807,3.807,0,0,1-2.783-1.134A3.585,3.585,0,0,1,138,44.617a3.807,3.807,0,0,1,1.134-2.783,3.983,3.983,0,0,1,5.567,0Z" transform="translate(-45.838 -14.515)" fill="#d9232d"/>
    <path id="Path_8" data-name="Path 8" d="M144.7,41.834a3.733,3.733,0,0,1,1.134,2.783A3.807,3.807,0,0,1,144.7,47.4a3.585,3.585,0,0,1-2.783,1.134,3.807,3.807,0,0,1-2.783-1.134A3.585,3.585,0,0,1,138,44.617a3.807,3.807,0,0,1,1.134-2.783,3.983,3.983,0,0,1,5.567,0Z" transform="translate(-45.838 -14.515)" fill="#d9232d"/>
    <path id="Path_9" data-name="Path 9" d="M134.2,41.834a3.733,3.733,0,0,1,1.134,2.783A3.807,3.807,0,0,1,134.2,47.4a3.585,3.585,0,0,1-2.783,1.134,3.807,3.807,0,0,1-2.783-1.134,3.585,3.585,0,0,1-1.134-2.783,3.807,3.807,0,0,1,1.134-2.783,3.983,3.983,0,0,1,5.567,0Z" transform="translate(-46.162 -14.515)" fill="#d9232d"/>
    <path id="Path_10" data-name="Path 10" d="M134.2,41.834a3.733,3.733,0,0,1,1.134,2.783A3.807,3.807,0,0,1,134.2,47.4a3.585,3.585,0,0,1-2.783,1.134,3.807,3.807,0,0,1-2.783-1.134,3.585,3.585,0,0,1-1.134-2.783,3.807,3.807,0,0,1,1.134-2.783,3.983,3.983,0,0,1,5.567,0Z" transform="translate(-46.162 -14.515)" fill="#d9232d"/>
    <path id="Path_11" data-name="Path 11" d="M116.9,44.034c2.474-.412,2.474-.825,0-1.134h6.907a1.117,1.117,0,0,1,0,1.134H116.9Z" transform="translate(-46.341 -14.447)" fill="#d9232d"/>
    <path id="Path_12" data-name="Path 12" d="M116.1,46.528h0c2.268-.412,2.268-.722-.1-.928h10a.773.773,0,0,1,0,.928h-9.9Z" transform="translate(-46.378 -14.364)" fill="#d9232d"/>
  </g>
  <path id="Path_14215" data-name="Path 14215" d="M7.791-5.705a5.18,5.18,0,0,0,2.274-.406,2.34,2.34,0,0,0,1.276-2.3A2.215,2.215,0,0,0,9.984-10.66a6.1,6.1,0,0,0-2.274-.325H3.59v5.28Zm.777,7.868A3.512,3.512,0,0,0,11.6.932a3.1,3.1,0,0,0,.569-1.88,2.5,2.5,0,0,0-1.659-2.53,6.282,6.282,0,0,0-2.332-.36H3.59v6ZM1.327-12.911H8.649q2.994,0,4.259,1.787a4.13,4.13,0,0,1,.743,2.437,3.837,3.837,0,0,1-.917,2.646,4.48,4.48,0,0,1-1.369,1,5.793,5.793,0,0,1,1.961,1.126A4.084,4.084,0,0,1,14.474-.843a4.753,4.753,0,0,1-1.033,2.982q-1.543,2-4.908,2H1.327ZM19.046-8.293v8.25a3.479,3.479,0,0,0,.3,1.555,2.105,2.105,0,0,0,2.077,1.114A2.936,2.936,0,0,0,24.4.677a7.735,7.735,0,0,0,.429-2.866v-6.1h2.089V4.135H24.941L24.965,2.3a4.213,4.213,0,0,1-1.01,1.2,4.442,4.442,0,0,1-2.9.975q-2.657,0-3.62-1.775A5.288,5.288,0,0,1,16.911.155V-8.293ZM31.416.236a3.038,3.038,0,0,0,.522,1.6,3.281,3.281,0,0,0,2.739,1.01,4.039,4.039,0,0,0,2.042-.5A1.676,1.676,0,0,0,37.6.782a1.335,1.335,0,0,0-.708-1.218,8.416,8.416,0,0,0-1.787-.592l-1.659-.418A8.1,8.1,0,0,1,31.1-2.328a2.636,2.636,0,0,1-1.346-2.344,3.581,3.581,0,0,1,1.271-2.855,5.069,5.069,0,0,1,3.417-1.091,4.744,4.744,0,0,1,4.05,1.648,3.576,3.576,0,0,1,.754,2.251H37.276a2.417,2.417,0,0,0-.5-1.288,3.182,3.182,0,0,0-2.495-.824,2.982,2.982,0,0,0-1.793.453,1.418,1.418,0,0,0-.609,1.2,1.471,1.471,0,0,0,.8,1.3,4.811,4.811,0,0,0,1.369.511l1.381.337A10.677,10.677,0,0,1,38.448-1.98,2.8,2.8,0,0,1,39.667.538,3.837,3.837,0,0,1,38.408,3.4a5.36,5.36,0,0,1-3.835,1.207q-2.773,0-3.928-1.259A4.761,4.761,0,0,1,29.409.236ZM42.057-8.235h2.124V4.135H42.057Zm0-4.676h2.124v2.367H42.057Zm5.28,4.618h1.984v1.764A5.566,5.566,0,0,1,51.19-8.1a4.982,4.982,0,0,1,2.193-.476,3.616,3.616,0,0,1,3.574,1.845,6.552,6.552,0,0,1,.511,2.889V4.135H55.344V-3.7a4.241,4.241,0,0,0-.337-1.833,2.04,2.04,0,0,0-2.019-1.16,4.111,4.111,0,0,0-1.218.151,3.138,3.138,0,0,0-1.509,1.021,3.074,3.074,0,0,0-.679,1.271,8.553,8.553,0,0,0-.157,1.874v6.51H47.337Zm18.392-.278a5.669,5.669,0,0,1,2.564.621,4.729,4.729,0,0,1,1.891,1.607,5.544,5.544,0,0,1,.835,2.193,14.349,14.349,0,0,1,.186,2.739H62.1a5.315,5.315,0,0,0,.894,3.034,2.992,2.992,0,0,0,2.588,1.143,3.345,3.345,0,0,0,2.611-1.079A3.638,3.638,0,0,0,68.979.236h2.054a4.326,4.326,0,0,1-.54,1.526,5.427,5.427,0,0,1-1.027,1.375A4.867,4.867,0,0,1,67.11,4.39a7.156,7.156,0,0,1-1.706.186,5.234,5.234,0,0,1-3.934-1.688,6.569,6.569,0,0,1-1.613-4.729A7.143,7.143,0,0,1,61.482-6.7,5.359,5.359,0,0,1,65.729-8.571Zm3.33,5.5a5.412,5.412,0,0,0-.592-2.17A3.033,3.033,0,0,0,65.6-6.749a3.177,3.177,0,0,0-2.414,1.039,3.923,3.923,0,0,0-1.033,2.64ZM75.013.236a3.038,3.038,0,0,0,.522,1.6,3.281,3.281,0,0,0,2.739,1.01,4.039,4.039,0,0,0,2.042-.5A1.676,1.676,0,0,0,81.2.782,1.335,1.335,0,0,0,80.49-.437,8.416,8.416,0,0,0,78.7-1.029l-1.659-.418A8.1,8.1,0,0,1,74.7-2.328a2.636,2.636,0,0,1-1.346-2.344,3.581,3.581,0,0,1,1.271-2.855,5.069,5.069,0,0,1,3.417-1.091,4.744,4.744,0,0,1,4.05,1.648,3.576,3.576,0,0,1,.754,2.251H80.873a2.416,2.416,0,0,0-.5-1.288,3.182,3.182,0,0,0-2.495-.824,2.982,2.982,0,0,0-1.793.453,1.418,1.418,0,0,0-.609,1.2,1.471,1.471,0,0,0,.8,1.3,4.811,4.811,0,0,0,1.369.511l1.381.337A10.677,10.677,0,0,1,82.045-1.98,2.8,2.8,0,0,1,83.263.538,3.837,3.837,0,0,1,82,3.4a5.36,5.36,0,0,1-3.835,1.207q-2.773,0-3.928-1.259A4.761,4.761,0,0,1,73.005.236ZM86.9.236a3.038,3.038,0,0,0,.522,1.6,3.281,3.281,0,0,0,2.739,1.01,4.039,4.039,0,0,0,2.042-.5A1.676,1.676,0,0,0,93.08.782a1.335,1.335,0,0,0-.708-1.218,8.415,8.415,0,0,0-1.787-.592l-1.659-.418a8.1,8.1,0,0,1-2.344-.882,2.636,2.636,0,0,1-1.346-2.344,3.581,3.581,0,0,1,1.271-2.855,5.069,5.069,0,0,1,3.417-1.091,4.744,4.744,0,0,1,4.05,1.648,3.576,3.576,0,0,1,.754,2.251H92.755a2.416,2.416,0,0,0-.5-1.288,3.182,3.182,0,0,0-2.495-.824,2.982,2.982,0,0,0-1.793.453,1.418,1.418,0,0,0-.609,1.2,1.471,1.471,0,0,0,.8,1.3,4.811,4.811,0,0,0,1.369.511l1.381.337A10.677,10.677,0,0,1,93.927-1.98,2.8,2.8,0,0,1,95.146.538,3.837,3.837,0,0,1,93.887,3.4a5.36,5.36,0,0,1-3.835,1.207q-2.773,0-3.928-1.259A4.761,4.761,0,0,1,84.888.236Z" transform="translate(109.086 20.497)" fill="#1f2137" stroke="#1f2137" stroke-width="1"/>
</svg>
